<svg width="30" height="30" viewBox="0 0 30 30" fill="none" xmlns="http://www.w3.org/2000/svg">
<g clip-path="url(#clip0_841_855)">
<path d="M12.4808 19.95L10.0059 24.2366M8.59171 26.6861L10.0059 24.2366L8.59171 26.6861ZM15.387 14.9163C14.7564 14.5578 14.2029 14.0781 13.7585 13.5049C13.314 12.9316 12.9873 12.2761 12.7972 11.5761C12.6072 10.8761 12.5574 10.1454 12.6509 9.42606C12.7444 8.70674 12.9792 8.01301 13.3419 7.38482C13.7046 6.75663 14.1879 6.20639 14.7642 5.76577C15.3404 5.32516 15.9981 5.00288 16.6993 4.81749C17.4006 4.63209 18.1316 4.58725 18.8503 4.68555C19.569 4.78384 20.2611 5.02332 20.8869 5.39021C22.1231 6.13287 23.0182 7.33136 23.3793 8.72755C23.7404 10.1237 23.5387 11.6059 22.8177 12.8548C22.0966 14.1038 20.9138 15.0195 19.5241 15.4049C18.1344 15.7902 16.649 15.6143 15.3877 14.9151L15.387 14.9163ZM15.387 14.9163L12.4808 19.95L15.387 14.9163ZM12.4808 19.95L8.80657 17.8287L6.33169 22.1153L10.0059 24.2366L12.4808 19.95Z" stroke="white" stroke-width="2" stroke-linecap="round" stroke-linejoin="round"/>
</g>
<defs>
<clipPath id="clip0_841_855">
<rect width="24" height="24" fill="white" transform="translate(29.3938 23.1826) rotate(165)"/>
</clipPath>
</defs>
</svg>
