<svg width="25" height="22" viewBox="0 0 25 22" fill="none" xmlns="http://www.w3.org/2000/svg">
<g filter="url(#filter0_b_318_618)">
<path d="M0.5 18.5V3.5C0.5 1.84315 1.84315 0.5 3.5 0.5H20.3571C22.014 0.5 23.3571 1.84314 23.3571 3.5V6.17814C23.3571 6.41484 23.549 6.60672 23.7857 6.60672C24.1802 6.60672 24.5 6.92651 24.5 7.321V14.6607C24.5 15.0552 24.1802 15.375 23.7857 15.375C23.549 15.375 23.3571 15.5669 23.3571 15.8036V18.5C23.3571 20.1569 22.014 21.5 20.3571 21.5H3.5C1.84315 21.5 0.5 20.1569 0.5 18.5Z" fill="white" fill-opacity="0.5"/>
</g>
<path fill-rule="evenodd" clip-rule="evenodd" d="M1 3.5C1 2.11929 2.11929 1 3.5 1H20.3571C21.7379 1 22.8571 2.11929 22.8571 3.5V6.10742H12.756C11.6514 6.10742 10.756 7.00285 10.756 8.10742V13.8927C10.756 14.9973 11.6514 15.8927 12.756 15.8927H22.8571V18.5C22.8571 19.8807 21.7379 21 20.3571 21H3.5C2.11929 21 1 19.8807 1 18.5V3.5ZM3.5 0C1.56701 0 0 1.567 0 3.5V18.5C0 20.433 1.567 22 3.5 22H20.3571C22.2901 22 23.8571 20.433 23.8571 18.5V15.8729C24.4945 15.836 25 15.3074 25 14.6607V7.321C25 6.67435 24.4945 6.14575 23.8571 6.10878V3.5C23.8571 1.567 22.2901 0 20.3571 0H3.5ZM11.756 8.10742C11.756 7.55514 12.2037 7.10742 12.756 7.10742H22.9964C23.5487 7.10742 23.9964 7.55514 23.9964 8.10742V13.8927C23.9964 14.445 23.5487 14.8927 22.9964 14.8927H12.756C12.2037 14.8927 11.756 14.445 11.756 13.8927V8.10742Z" fill="white"/>
<path fill-rule="evenodd" clip-rule="evenodd" d="M15.6577 12.2185C16.3307 12.2185 16.8762 11.673 16.8762 11C16.8762 10.327 16.3307 9.78149 15.6577 9.78149C14.9848 9.78149 14.4392 10.327 14.4392 11C14.4392 11.673 14.9848 12.2185 15.6577 12.2185ZM15.6577 13.2185C16.883 13.2185 17.8762 12.2252 17.8762 11C17.8762 9.77475 16.883 8.78149 15.6577 8.78149C14.4325 8.78149 13.4392 9.77475 13.4392 11C13.4392 12.2252 14.4325 13.2185 15.6577 13.2185Z" fill="white"/>
<defs>
<filter id="filter0_b_318_618" x="-2.5" y="-2.5" width="30" height="27" filterUnits="userSpaceOnUse" color-interpolation-filters="sRGB">
<feFlood flood-opacity="0" result="BackgroundImageFix"/>
<feGaussianBlur in="BackgroundImage" stdDeviation="1.5"/>
<feComposite in2="SourceAlpha" operator="in" result="effect1_backgroundBlur_318_618"/>
<feBlend mode="normal" in="SourceGraphic" in2="effect1_backgroundBlur_318_618" result="shape"/>
</filter>
</defs>
</svg>
