<svg width="26" height="23" viewBox="0 0 26 23" fill="none" xmlns="http://www.w3.org/2000/svg">
<path d="M24 13C24.8284 13 25.5 12.3284 25.5 11.5C25.5 10.6716 24.8284 10 24 10V13ZM0.43934 10.4393C-0.146447 11.0251 -0.146447 11.9749 0.43934 12.5607L9.98528 22.1066C10.5711 22.6924 11.5208 22.6924 12.1066 22.1066C12.6924 21.5208 12.6924 20.5711 12.1066 19.9853L3.62132 11.5L12.1066 3.01472C12.6924 2.42893 12.6924 1.47919 12.1066 0.893398C11.5208 0.307611 10.5711 0.307611 9.98528 0.893398L0.43934 10.4393ZM24 10H1.5V13H24V10Z" fill="currentColor"/>
</svg>
