<svg width="26" height="26" viewBox="0 0 26 26" fill="none" xmlns="http://www.w3.org/2000/svg">
<path d="M22.75 17.3334V8.66672C22.7496 8.28677 22.6493 7.9136 22.4592 7.58465C22.269 7.2557 21.9957 6.98253 21.6667 6.79256L14.0833 2.45922C13.754 2.26906 13.3803 2.16895 13 2.16895C12.6197 2.16895 12.246 2.26906 11.9167 2.45922L4.33333 6.79256C4.00428 6.98253 3.73098 7.2557 3.54083 7.58465C3.35069 7.9136 3.25039 8.28677 3.25 8.66672V17.3334C3.25039 17.7133 3.35069 18.0865 3.54083 18.4155C3.73098 18.7444 4.00428 19.0176 4.33333 19.2076L11.9167 23.5409C12.246 23.7311 12.6197 23.8312 13 23.8312C13.3803 23.8312 13.754 23.7311 14.0833 23.5409L21.6667 19.2076C21.9957 19.0176 22.269 18.7444 22.4592 18.4155C22.6493 18.0865 22.7496 17.7133 22.75 17.3334Z" stroke="#8E477F" stroke-width="2" stroke-linecap="round" stroke-linejoin="round"/>
<path d="M8.125 4.56079L13 7.37746L17.875 4.56079" stroke="#8E477F" stroke-width="2" stroke-linecap="round" stroke-linejoin="round"/>
<path d="M8.125 21.4392V15.8167L3.25 13" stroke="#8E477F" stroke-width="2" stroke-linecap="round" stroke-linejoin="round"/>
<path d="M22.75 13L17.875 15.8167V21.4392" stroke="#8E477F" stroke-width="2" stroke-linecap="round" stroke-linejoin="round"/>
<path d="M3.54248 7.54004L13 13.0109L22.4575 7.54004" stroke="#8E477F" stroke-width="2" stroke-linecap="round" stroke-linejoin="round"/>
<path d="M13 23.92V13" stroke="#8E477F" stroke-width="2" stroke-linecap="round" stroke-linejoin="round"/>
</svg>
