<svg width="102" height="48" viewBox="0 0 102 48" fill="none" xmlns="http://www.w3.org/2000/svg">
<path opacity="0.5" d="M1 31L50.5 46.5L101 31" stroke="#EFA9E0" stroke-width="2" stroke-linecap="round" stroke-linejoin="round"/>
<path opacity="0.5" d="M31.076 25C31.076 24.056 31.076 23.148 31.076 22.276C31.076 21.404 31.076 20.436 31.076 19.372V13.612C31.076 12.524 31.076 11.536 31.076 10.648C31.076 9.76 31.076 8.84 31.076 7.888H33.944C33.944 8.84 33.944 9.76 33.944 10.648C33.944 11.536 33.944 12.524 33.944 13.612V19.372C33.944 20.436 33.944 21.404 33.944 22.276C33.944 23.148 33.944 24.056 33.944 25H31.076ZM37.5193 25C37.5193 24.128 37.5193 23.284 37.5193 22.468C37.5193 21.652 37.5193 20.752 37.5193 19.768V18.568C37.5193 17.68 37.5193 16.776 37.5193 15.856C37.5193 14.928 37.5193 14 37.5193 13.072L39.7153 12.928L39.8113 15.088H40.0633C40.3193 14.72 40.6433 14.36 41.0353 14.008C41.4353 13.648 41.8993 13.352 42.4273 13.12C42.9553 12.888 43.5593 12.772 44.2393 12.772C45.4793 12.772 46.3953 13.132 46.9873 13.852C47.5872 14.572 47.8872 15.628 47.8872 17.02C47.8872 17.54 47.8872 18.012 47.8872 18.436C47.8872 18.852 47.8872 19.296 47.8872 19.768C47.8872 20.728 47.8872 21.624 47.8872 22.456C47.8872 23.28 47.8872 24.128 47.8872 25H45.3193C45.3193 24.128 45.3193 23.284 45.3193 22.468C45.3193 21.644 45.3193 20.788 45.3193 19.9V17.764C45.3193 16.9 45.1713 16.248 44.8753 15.808C44.5793 15.368 44.0353 15.148 43.2433 15.148C42.7793 15.148 42.3553 15.244 41.9713 15.436C41.5873 15.62 41.2393 15.872 40.9273 16.192C40.6153 16.504 40.3353 16.852 40.0873 17.236V19.9C40.0873 20.82 40.0873 21.684 40.0873 22.492C40.0873 23.292 40.0873 24.128 40.0873 25H37.5193ZM51.8039 25C51.8039 24.128 51.8039 23.284 51.8039 22.468C51.8039 21.652 51.8039 20.752 51.8039 19.768V18.568C51.8039 18.088 51.8039 17.576 51.8039 17.032C51.8039 16.48 51.8039 15.912 51.8039 15.328C51.8039 14.736 51.8039 14.132 51.8039 13.516C51.8039 12.9 51.8039 12.28 51.8039 11.656C51.8039 10.768 51.9239 10.032 52.1639 9.448C52.4039 8.856 52.7319 8.392 53.1479 8.056C53.5719 7.712 54.0559 7.468 54.5999 7.324C55.1439 7.172 55.7199 7.096 56.3279 7.096C56.6399 7.096 56.9439 7.112 57.2399 7.144C57.5359 7.168 57.8039 7.208 58.0439 7.264C58.2839 7.32 58.4839 7.376 58.6439 7.432L58.4399 9.592C58.1679 9.496 57.8839 9.42 57.5879 9.364C57.2999 9.308 56.9999 9.28 56.6879 9.28C55.8559 9.28 55.2439 9.48 54.8519 9.88C54.4679 10.28 54.2759 10.888 54.2759 11.704C54.2759 11.92 54.2759 12.168 54.2759 12.448C54.2759 12.728 54.2759 12.936 54.2759 13.072L54.3719 13.576V19.768C54.3719 20.752 54.3719 21.652 54.3719 22.468C54.3719 23.284 54.3719 24.128 54.3719 25H51.8039ZM49.6439 15.052V13.072H58.1399V15.052C57.3559 15.052 56.5959 15.052 55.8599 15.052C55.1239 15.052 54.3799 15.052 53.6279 15.052H52.5359H49.6439ZM65.0503 25.288C64.0263 25.288 63.1303 25.116 62.3623 24.772C61.5943 24.428 60.9503 23.964 60.4303 23.38C59.9183 22.788 59.5343 22.116 59.2783 21.364C59.0223 20.604 58.8943 19.808 58.8943 18.976C58.8943 17.784 59.1343 16.724 59.6143 15.796C60.0943 14.86 60.7903 14.124 61.7023 13.588C62.6143 13.044 63.7143 12.772 65.0023 12.772C65.9863 12.772 66.8583 12.928 67.6183 13.24C68.3783 13.552 69.0143 13.992 69.5263 14.56C70.0463 15.12 70.4383 15.776 70.7023 16.528C70.9663 17.28 71.0983 18.096 71.0983 18.976C71.0983 20.168 70.8583 21.24 70.3783 22.192C69.8983 23.144 69.2023 23.9 68.2903 24.46C67.3863 25.012 66.3063 25.288 65.0503 25.288ZM65.0383 23.128C65.8063 23.128 66.4463 22.932 66.9583 22.54C67.4703 22.14 67.8503 21.624 68.0983 20.992C68.3543 20.36 68.4823 19.688 68.4823 18.976C68.4823 18.152 68.3383 17.44 68.0503 16.84C67.7703 16.232 67.3703 15.764 66.8503 15.436C66.3383 15.1 65.7303 14.932 65.0263 14.932C64.2663 14.932 63.6223 15.112 63.0943 15.472C62.5743 15.824 62.1783 16.308 61.9063 16.924C61.6423 17.532 61.5103 18.216 61.5103 18.976C61.5103 19.688 61.6383 20.36 61.8943 20.992C62.1583 21.624 62.5503 22.14 63.0703 22.54C63.5983 22.932 64.2543 23.128 65.0383 23.128Z" fill="#EFA9E0"/>
</svg>
