<svg width="26" height="26" viewBox="0 0 26 26" viewBox="0 0 26 26" fill="none" xmlns="http://www.w3.org/2000/svg">
<path d="M8.12648 18.8168L13.2358 9.46277L18.5024 18.4238" stroke="currentColor" stroke-width="2" stroke-linecap="round" stroke-linejoin="round"/>
<path d="M18.4238 7.7335L13.3144 17.0875L8.04788 8.12653" stroke="currentColor" stroke-width="2" stroke-linecap="round" stroke-linejoin="round"/>
<path d="M24.546 12.5461C24.648 15.14 23.8736 17.6926 22.3477 19.7926C20.8217 21.8926 18.6331 23.4175 16.1346 24.1217C13.636 24.8259 10.9732 24.6683 8.57519 23.6742C6.1772 22.6802 4.18378 20.9076 2.91623 18.6423C1.64869 16.3769 1.18086 13.7508 1.58815 11.1871C1.99545 8.62335 3.25414 6.27147 5.16134 4.51049C7.06855 2.74951 9.51316 1.68202 12.1012 1.4801C14.6892 1.27817 17.2698 1.95356 19.427 3.39741" stroke="currentColor" stroke-width="2" stroke-linecap="round"/>
</svg>
