<svg width="26" height="26" viewBox="0 0 26 26" fill="none" xmlns="http://www.w3.org/2000/svg">
<path d="M19.5 8.66666C19.5 6.94275 18.8152 5.28945 17.5962 4.07046C16.3772 2.85148 14.7239 2.16666 13 2.16666C11.2761 2.16666 9.62279 2.85148 8.40381 4.07046C7.18482 5.28945 6.5 6.94275 6.5 8.66666C6.5 16.25 3.25 18.4167 3.25 18.4167H22.75C22.75 18.4167 19.5 16.25 19.5 8.66666Z" stroke="currentColor" stroke-width="1.5" stroke-linecap="round" stroke-linejoin="round"/>
<path d="M14.8742 22.75C14.6837 23.0783 14.4103 23.3509 14.0814 23.5403C13.7525 23.7298 13.3796 23.8295 13 23.8295C12.6204 23.8295 12.2475 23.7298 11.9186 23.5403C11.5897 23.3509 11.3163 23.0783 11.1258 22.75" stroke="currentColor" stroke-width="1.5" stroke-linecap="round" stroke-linejoin="round"/>
</svg>
