<svg width="26" height="26" viewBox="0 0 26 26" fill="none" xmlns="http://www.w3.org/2000/svg">
<path d="M22.75 17.3333V8.66666C22.7496 8.28671 22.6493 7.91354 22.4592 7.58459C22.269 7.25564 21.9957 6.98247 21.6667 6.7925L14.0833 2.45916C13.754 2.269 13.3803 2.16888 13 2.16888C12.6197 2.16888 12.246 2.269 11.9167 2.45916L4.33333 6.7925C4.00428 6.98247 3.73098 7.25564 3.54083 7.58459C3.35069 7.91354 3.25039 8.28671 3.25 8.66666V17.3333C3.25039 17.7133 3.35069 18.0865 3.54083 18.4154C3.73098 18.7444 4.00428 19.0175 4.33333 19.2075L11.9167 23.5408C12.246 23.731 12.6197 23.8311 13 23.8311C13.3803 23.8311 13.754 23.731 14.0833 23.5408L21.6667 19.2075C21.9957 19.0175 22.269 18.7444 22.4592 18.4154C22.6493 18.0865 22.7496 17.7133 22.75 17.3333Z" stroke="currentColor" stroke-width="1.5" stroke-linecap="round" stroke-linejoin="round"/>
<path d="M3.54251 7.53999L13 13.0108L22.4575 7.53999" stroke="currentColor" stroke-width="1.5" stroke-linecap="round" stroke-linejoin="round"/>
<path d="M13 23.92V13" stroke="currentColor" stroke-width="1.5" stroke-linecap="round" stroke-linejoin="round"/>
</svg>
