<svg width="26" height="26" viewBox="0 0 26 26" fill="none" xmlns="http://www.w3.org/2000/svg">
<path d="M22.75 17.3333V8.66667C22.7496 8.28672 22.6493 7.91355 22.4592 7.5846C22.269 7.25565 21.9957 6.98248 21.6667 6.7925L14.0833 2.45917C13.754 2.26901 13.3803 2.16889 13 2.16889C12.6197 2.16889 12.246 2.26901 11.9167 2.45917L4.33333 6.7925C4.00428 6.98248 3.73098 7.25565 3.54083 7.5846C3.35069 7.91355 3.25039 8.28672 3.25 8.66667V17.3333C3.25039 17.7133 3.35069 18.0865 3.54083 18.4154C3.73098 18.7444 4.00428 19.0175 4.33333 19.2075L11.9167 23.5408C12.246 23.731 12.6197 23.8311 13 23.8311C13.3803 23.8311 13.754 23.731 14.0833 23.5408L21.6667 19.2075C21.9957 19.0175 22.269 18.7444 22.4592 18.4154C22.6493 18.0865 22.7496 17.7133 22.75 17.3333Z" stroke="currentColor" stroke-width="1.5" stroke-linecap="round" stroke-linejoin="round"/>
<path d="M8.125 4.56084L13 7.3775L17.875 4.56084" stroke="currentColor" stroke-width="1.5" stroke-linecap="round" stroke-linejoin="round"/>
<path d="M8.125 21.4392V15.8167L3.25 13" stroke="currentColor" stroke-width="1.5" stroke-linecap="round" stroke-linejoin="round"/>
<path d="M22.75 13L17.875 15.8167V21.4392" stroke="currentColor" stroke-width="1.5" stroke-linecap="round" stroke-linejoin="round"/>
<path d="M3.54251 7.53999L13 13.0108L22.4575 7.53999" stroke="currentColor" stroke-width="1.5" stroke-linecap="round" stroke-linejoin="round"/>
<path d="M13 23.92V13" stroke="currentColor" stroke-width="1.5" stroke-linecap="round" stroke-linejoin="round"/>
</svg>
