<svg xmlns="http://www.w3.org/2000/svg" viewBox="0 0 24.75 20.17"><defs><style>.cls-1{fill:#c5c5c5;}</style></defs><g id="レイヤー_2" data-name="レイヤー 2"><g id="レイヤー_1-2" data-name="レイヤー 1"><path class="cls-1" d="M20.17,4.59V0H4.58V4.59H0V20.17H24.75V4.59ZM5.33.71H9.54V4.59H5.33ZM24,19.42H.75V5.34H24Z"/><circle class="cls-1" cx="12.37" cy="12.37" r="2.83"/><path class="cls-1" d="M18.24,17.16a.23.23,0,0,1-.18-.08.25.25,0,0,1,0-.34,7,7,0,0,0,1.48-4.36A7.2,7.2,0,0,0,18,7.94a.24.24,0,0,1,0-.35.25.25,0,0,1,.35,0A7.47,7.47,0,0,1,20,12.38a7.83,7.83,0,0,1-.85,3.55l.3-.21a.25.25,0,1,1,.29.4l-1.39,1A.28.28,0,0,1,18.24,17.16Z"/><path class="cls-1" d="M6.49,17.16a.25.25,0,0,1-.18-.08,7.5,7.5,0,0,1-1.66-4.77A7.7,7.7,0,0,1,5.5,8.76L5.2,9a.25.25,0,1,1-.29-.4l1.39-1a.26.26,0,0,1,.33,0,.24.24,0,0,1,0,.33,7.18,7.18,0,0,0,0,8.8.26.26,0,0,1,0,.36A.27.27,0,0,1,6.49,17.16Z"/></g></g></svg>