<svg viewBox="0 0 126 154" fill="none" xmlns="http://www.w3.org/2000/svg">
<g filter="url(#filter0_d_369_962)">
<path d="M89.3979 38.2933C72.4566 19.2767 69.2401 14.8325 67.6626 12.5449C66.085 10.2573 64.5688 9 63 9C61.4312 9 59.9676 10.2136 58.3287 12.5449C56.6897 14.8761 53.5434 19.2767 36.6021 38.2933C23.2717 53.2587 13 64.0068 13 87.1883C13 100.399 18.2678 113.069 27.6447 122.41C37.0215 131.752 49.7392 137 63 137C76.2608 137 88.9785 131.752 98.3553 122.41C107.732 113.069 113 100.399 113 87.1883C113 64.0068 102.728 53.2587 89.3979 38.2933Z" fill="white"/>
<path d="M88.6512 38.9585C71.709 19.9408 68.4555 15.4561 66.8393 13.1126C65.2723 10.8403 64.0195 10 63 10C61.9797 10 60.7808 10.7957 59.1467 13.12C57.4733 15.5003 54.2952 19.936 37.3488 38.9585M88.6512 38.9585C89.0697 39.4283 89.4848 39.8936 89.8963 40.3548C96.0632 47.2671 101.419 53.2702 105.328 60.1536C109.475 67.454 112 75.7655 112 87.1883C112 100.133 106.838 112.548 97.6496 121.702C88.4606 130.856 75.9968 136 63 136C50.0032 136 37.5394 130.856 28.3504 121.702C19.1616 112.548 14 100.133 14 87.1883C14 75.7655 16.5255 67.454 20.6717 60.1536C24.5811 53.2702 29.9368 47.2671 36.1038 40.3548C36.5152 39.8936 36.9303 39.4283 37.3488 38.9585M88.6512 38.9585L89.3979 38.2933L88.6512 38.9585C88.6512 38.9585 88.6512 38.9585 88.6512 38.9585ZM37.3488 38.9585L36.6021 38.2933L37.3488 38.9585C37.3488 38.9585 37.3488 38.9585 37.3488 38.9585Z" stroke="#EFA9E0" stroke-width="2"/>
</g>
<defs>
<filter id="filter0_d_369_962" x="0" y="0" width="126" height="154" filterUnits="userSpaceOnUse" color-interpolation-filters="sRGB">
<feFlood flood-opacity="0" result="BackgroundImageFix"/>
<feColorMatrix in="SourceAlpha" type="matrix" values="0 0 0 0 0 0 0 0 0 0 0 0 0 0 0 0 0 0 127 0" result="hardAlpha"/>
<feOffset dy="4"/>
<feGaussianBlur stdDeviation="6.5"/>
<feComposite in2="hardAlpha" operator="out"/>
<feColorMatrix type="matrix" values="0 0 0 0 0 0 0 0 0 0 0 0 0 0 0 0 0 0 0.08 0"/>
<feBlend mode="normal" in2="BackgroundImageFix" result="effect1_dropShadow_369_962"/>
<feBlend mode="normal" in="SourceGraphic" in2="effect1_dropShadow_369_962" result="shape"/>
</filter>
</defs>
</svg>
