<svg width="20" height="17" viewBox="0 0 20 17" fill="none" xmlns="http://www.w3.org/2000/svg">
<path d="M16.569 5.80466C16.5777 5.93415 16.5777 6.06364 16.5777 6.19432C16.5777 10.1763 13.6441 14.7688 8.27986 14.7688V14.7664C6.69525 14.7688 5.14355 14.2997 3.80957 13.4154C4.03999 13.444 4.27156 13.4583 4.5037 13.4589C5.8169 13.4601 7.09256 13.0048 8.12567 12.1664C6.87773 12.1419 5.7834 11.3011 5.40111 10.0737C5.83826 10.1608 6.2887 10.1429 6.71777 10.0218C5.35722 9.73771 4.37839 8.50248 4.37839 7.06794V7.02975C4.78378 7.26307 5.23768 7.39256 5.70198 7.40688C4.42055 6.52193 4.02555 4.76038 4.79937 3.38312C6.28004 5.26581 8.46465 6.41034 10.8098 6.53148C10.5748 5.48481 10.8959 4.38802 11.6535 3.65225C12.8281 2.5113 14.6755 2.56978 15.7796 3.78293C16.4328 3.64986 17.0587 3.40222 17.6316 3.05134C17.4139 3.74892 16.9583 4.34147 16.3496 4.71801C16.9277 4.64759 17.4924 4.48767 18.0243 4.24361C17.6328 4.84989 17.1396 5.37799 16.569 5.80466Z" fill="currentColor"/>
<path d="M16.569 5.80466C16.5777 5.93415 16.5777 6.06364 16.5777 6.19432C16.5777 10.1763 13.6441 14.7688 8.27986 14.7688V14.7664C6.69525 14.7688 5.14355 14.2997 3.80957 13.4154C4.03999 13.444 4.27156 13.4583 4.5037 13.4589C5.8169 13.4601 7.09256 13.0048 8.12567 12.1664C6.87773 12.1419 5.7834 11.3011 5.40111 10.0737C5.83826 10.1608 6.2887 10.1429 6.71777 10.0218C5.35722 9.73771 4.37839 8.50248 4.37839 7.06794V7.02975C4.78378 7.26307 5.23768 7.39256 5.70198 7.40688C4.42055 6.52193 4.02555 4.76038 4.79937 3.38312C6.28004 5.26581 8.46465 6.41034 10.8098 6.53148C10.5748 5.48481 10.8959 4.38802 11.6535 3.65225C12.8281 2.5113 14.6755 2.56978 15.7796 3.78293C16.4328 3.64986 17.0587 3.40222 17.6316 3.05134C17.4139 3.74892 16.9583 4.34147 16.3496 4.71801C16.9277 4.64759 17.4924 4.48767 18.0243 4.24361C17.6328 4.84989 17.1396 5.37799 16.569 5.80466Z" stroke="currentColor"/>
</svg>
