<svg width="20" height="20" viewBox="0 0 20 20" fill="none" xmlns="http://www.w3.org/2000/svg">
<circle cx="10" cy="10" r="10" fill="#FBD7FF"/>
<path fill-rule="evenodd" clip-rule="evenodd" d="M9.8 6.4C10.1314 6.84183 10.0418 7.46863 9.6 7.8L6.66667 10L9.6 12.2C10.0418 12.5314 10.1314 13.1582 9.8 13.6C9.46863 14.0418 8.84183 14.1314 8.4 13.8L4.4 10.8C4.14819 10.6111 4 10.3148 4 10C4 9.68524 4.14819 9.38885 4.4 9.2L8.4 6.2C8.84183 5.86863 9.46863 5.95817 9.8 6.4Z" fill="#320046"/>
<path fill-rule="evenodd" clip-rule="evenodd" d="M16 10C16 10.5523 15.5523 11 15 11L5 11C4.44771 11 4 10.5523 4 10C4 9.44772 4.44771 9 5 9L15 9C15.5523 9 16 9.44772 16 10Z" fill="#320046"/>
</svg>
