<svg width="20" height="20" viewBox="0 0 20 20" fill="none" xmlns="http://www.w3.org/2000/svg">
<circle cx="10" cy="10" r="10" transform="rotate(-180 10 10)" fill="#FBD7FF"/>
<path fill-rule="evenodd" clip-rule="evenodd" d="M10.2 13.6C9.86863 13.1582 9.95817 12.5314 10.4 12.2L13.3333 10L10.4 7.8C9.95817 7.46863 9.86863 6.84183 10.2 6.4C10.5314 5.95817 11.1582 5.86863 11.6 6.2L15.6 9.2C15.8518 9.38886 16 9.68525 16 10C16 10.3148 15.8518 10.6111 15.6 10.8L11.6 13.8C11.1582 14.1314 10.5314 14.0418 10.2 13.6Z" fill="#320046"/>
<path fill-rule="evenodd" clip-rule="evenodd" d="M4 10C4 9.44772 4.44772 9 5 9L15 9C15.5523 9 16 9.44772 16 10C16 10.5523 15.5523 11 15 11L5 11C4.44772 11 4 10.5523 4 10Z" fill="#320046"/>
</svg>
