<svg width="123" height="160" viewBox="0 0 123 160" fill="none" xmlns="http://www.w3.org/2000/svg">
<g clip-path="url(#clip0_2401_14502)">
<path d="M53.4425 52.0811L59.3132 41.0826C59.9879 39.8199 61.2961 39.0256 62.7261 39.0105C64.1493 38.9982 65.4822 39.7624 66.1829 41.01L91.9756 86.9557C93.0348 88.8429 92.3656 91.2327 90.4799 92.2927C88.5942 93.3527 86.2062 92.683 85.147 90.7958L62.8548 51.0869L58.0008 60.1804" fill="currentColor"/>
<path d="M50.9724 73.3455L40.7678 92.4625C40.0631 93.7841 38.7083 94.536 37.3097 94.536C36.6871 94.536 36.0548 94.3867 35.4678 94.0731C33.5601 93.0528 32.839 90.678 33.8585 88.7689L46.3895 65.2928" fill="currentColor"/>
<path d="M63.1077 86.0765C61.6927 86.0765 60.3872 85.3123 59.6934 84.077L33.9006 38.1299C32.8414 36.2428 33.5106 33.853 35.3963 32.793C37.2821 31.733 39.67 32.4027 40.7292 34.2898L63.0214 73.9988L85.107 32.6245C86.1265 30.7154 88.4995 29.9937 90.4071 31.014C92.3147 32.0343 93.0359 34.409 92.0164 36.3181L66.563 84.0031C65.8884 85.2658 64.5801 86.0601 63.1501 86.0752C63.1364 86.0752 63.1227 86.0752 63.1077 86.0752V86.0765Z" fill="currentColor"/>
<path d="M74.952 51.6457L85.1046 32.6245C86.1241 30.7154 88.497 29.9937 90.4047 31.014C92.3123 32.0343 93.0335 34.409 92.014 36.3181L79.4926 59.7778" fill="currentColor"/>
<path d="M72.3957 73.0744L66.5619 84.0031C65.8873 85.2658 64.579 86.0601 63.149 86.0752C63.1353 86.0752 63.1216 86.0752 63.1066 86.0752C61.6916 86.0752 60.3861 85.311 59.6923 84.0757L33.8995 38.1299C32.8403 36.2428 33.5095 33.853 35.3952 32.793C37.281 31.733 39.6689 32.4026 40.7281 34.2898L63.0203 73.9988L67.8455 64.9587" fill="currentColor"/>
<path d="M37.3097 94.536C36.6871 94.536 36.0548 94.3867 35.4678 94.0731C33.5601 93.0528 32.839 90.6781 33.8585 88.769L59.3118 41.084C59.9865 39.8213 61.2947 39.027 62.7248 39.0119C64.148 38.9996 65.4809 39.7638 66.1815 41.0114L91.9743 86.9571C93.0334 88.8443 92.3643 91.2341 90.4785 92.2941C88.5928 93.3541 86.2048 92.6844 85.1456 90.7973L62.8534 51.0883L40.7678 92.4626C40.0631 93.7842 38.7083 94.536 37.3097 94.536Z" fill="currentColor"/>
<path d="M119.871 69.9379C117.754 69.5024 115.682 70.8692 115.247 72.9906C111.591 90.8243 99.3656 105.563 82.5403 112.416C69.1198 117.882 54.376 117.79 41.0253 112.159C27.6733 106.527 17.3126 96.0285 11.8511 82.5991C6.38959 69.1683 6.48128 54.4132 12.1084 41.0522C17.7355 27.6913 28.2248 17.3213 41.6452 11.8542C50.7264 8.15517 60.6203 6.9815 70.2543 8.45921C79.6173 9.89445 88.4849 13.7715 95.8965 19.6673C97.5893 21.0149 100.054 20.7328 101.399 19.0387C102.746 17.3446 102.464 14.8781 100.771 13.5319C92.2934 6.78703 82.1503 2.35256 71.4407 0.710512C60.4082 -0.980835 49.0828 0.361287 38.6921 4.59445C30.9316 7.75528 24.0208 12.3445 18.1501 18.2334C12.482 23.921 8.01943 30.5727 4.88976 38.0064C1.75872 45.4401 0.115195 53.2819 0.0057182 61.3128C-0.107864 69.6312 1.43576 77.7866 4.59417 85.5531C7.75258 93.3196 12.3383 100.236 18.2227 106.111C23.6226 111.501 29.8956 115.801 36.8803 118.903V156.079C36.8803 157.452 37.5987 158.725 38.7728 159.435C39.9484 160.145 41.4085 160.187 42.6223 159.548L61.9518 149.355L81.28 159.548C81.852 159.849 82.4801 160 83.1055 160C83.8075 160 84.5082 159.811 85.1295 159.435C86.305 158.726 87.022 157.452 87.022 156.079V119.025C105.485 110.927 118.848 94.4234 122.918 74.5628C123.353 72.4428 121.99 70.3734 119.871 69.9379ZM63.7787 141.457C62.6361 140.854 61.2703 140.854 60.1277 141.457L44.7161 149.585V121.781C46.6826 122.357 48.6723 122.835 50.6812 123.212V140.675L61.9546 134.73L73.228 140.675V123.268C75.2341 122.9 77.2239 122.431 79.1931 121.863V149.583L63.7787 141.457Z" fill="currentColor"/>
</g>
<defs>
<clipPath id="clip0_2401_14502">
<rect width="123" height="160" fill="white"/>
</clipPath>
</defs>
</svg>
